<?xml version="1.0" standalone="no"?>
<!DOCTYPE svg PUBLIC "-//W3C//DTD SVG 20010904//EN"
 "http://www.w3.org/TR/2001/REC-SVG-20010904/DTD/svg10.dtd">
<svg version="1.0" xmlns="http://www.w3.org/2000/svg"
 width="1000.000000pt" height="1000.000000pt" viewBox="0 0 1000.000000 1000.000000"
 preserveAspectRatio="xMidYMid meet">
<metadata>
Created by potrace 1.11, written by Peter Selinger 2001-2013
</metadata>
<g transform="translate(0.000000,1000.000000) scale(0.100000,-0.100000)"
fill="#000000" stroke="none">
<path d="M7340 9664 c-278 -42 -596 -188 -830 -382 -91 -75 -281 -271 -361
-372 -184 -232 -298 -427 -741 -1275 -138 -263 -624 -1246 -673 -1360 -26 -60
-55 -128 -65 -150 -10 -22 -37 -83 -60 -135 -23 -52 -45 -99 -49 -105 -4 -5
-33 -57 -63 -115 -31 -58 -67 -125 -81 -150 l-25 -45 -233 0 -234 0 0 1690 0
1690 443 3 442 2 0 270 0 270 -1957 -2 -1958 -3 0 -267 0 -268 527 0 528 0 1
-27 c1 -35 0 -7737 0 -7775 l-1 -28 -528 0 -527 0 0 -270 0 -270 1910 0 1910
0 0 267 0 268 -395 5 -395 5 0 1978 c0 1089 2 1983 5 1987 3 5 42 0 87 -10 45
-11 96 -22 114 -25 18 -3 36 -8 41 -11 4 -3 16 -7 26 -9 89 -17 343 -103 489
-165 554 -238 965 -617 1197 -1103 72 -153 165 -422 191 -557 2 -8 12 -53 23
-100 11 -47 22 -101 26 -120 3 -19 8 -46 11 -60 7 -35 24 -139 40 -250 4 -25
8 -56 10 -70 4 -23 6 -46 20 -167 11 -97 14 -132 21 -218 3 -49 8 -106 9 -125
5 -44 14 -205 20 -330 3 -52 7 -220 10 -373 l6 -277 -250 0 -250 0 -1 -270 0
-270 1730 0 c951 0 1730 3 1731 8 0 4 1 125 2 270 l2 262 -382 0 -383 0 0 53
c-2 175 -13 422 -25 542 -17 170 -25 240 -30 275 -2 14 -7 45 -10 70 -8 59
-14 99 -20 130 -3 14 -7 39 -10 55 -11 70 -47 239 -65 311 -12 44 -22 86 -24
94 -40 168 -134 430 -228 636 -312 683 -797 1177 -1538 1567 -69 36 -172 86
-230 112 -58 26 -118 53 -135 60 -190 86 -627 234 -885 301 -30 8 -62 16 -70
18 -8 2 -73 18 -145 36 -71 17 -131 33 -133 34 -1 2 21 48 49 102 114 219 173
331 199 379 15 28 39 70 52 95 14 25 34 61 45 80 11 19 34 60 50 90 102 182
203 354 307 519 53 84 96 157 96 162 0 4 3 9 8 11 4 2 43 57 87 123 177 267
381 522 554 693 187 185 353 295 513 337 49 13 268 13 343 1 138 -24 292 -70
390 -118 58 -28 196 -84 355 -144 41 -15 80 -32 87 -37 9 -7 188 -12 275 -8
14 1 16 16 18 109 0 59 3 132 5 162 12 170 17 221 25 280 4 36 9 100 9 144 2
99 10 185 26 270 5 26 72 217 96 276 25 59 179 482 179 490 0 20 -255 122
-360 145 -8 2 -51 12 -95 23 -44 11 -100 24 -125 28 -25 4 -47 8 -50 9 -6 1
-110 16 -150 21 -14 2 -126 5 -250 8 -164 3 -251 0 -320 -10z"/>
</g>
</svg>
